<svg xmlns="http://www.w3.org/2000/svg" xmlns:xlink="http://www.w3.org/1999/xlink" width="28" height="28" viewBox="0 0 28 28">
  <defs>
    <clipPath id="clip-path">
      <rect id="Rectangle_19" data-name="Rectangle 19" width="28" height="28" transform="translate(11 0.136)" fill="#fff"/>
    </clipPath>
    <linearGradient id="linear-gradient" x1="0.5" y1="1" x2="0.5" gradientUnits="objectBoundingBox">
      <stop offset="0" stop-color="#fd5900"/>
      <stop offset="1" stop-color="#ffde00"/>
    </linearGradient>
    <linearGradient id="linear-gradient-2" x1="0.5" y1="1" x2="0.5" gradientUnits="objectBoundingBox">
      <stop offset="0" stop-color="#ffe59a"/>
      <stop offset="1" stop-color="#ffffd5"/>
    </linearGradient>
  </defs>
  <g id="Mask_Group_35" data-name="Mask Group 35" transform="translate(-11 -0.136)" clip-path="url(#clip-path)">
    <g id="premium-quality" transform="translate(11 0.136)">
      <g id="Group_3744" data-name="Group 3744">
        <g id="Group_3743" data-name="Group 3743">
          <path id="Path_5051" data-name="Path 5051" d="M27.734,15.12a2.5,2.5,0,0,0,0-2.241l-.367-.727a.841.841,0,0,1-.081-.51l.124-.8a2.5,2.5,0,0,0-.693-2.131l-.573-.578a.841.841,0,0,1-.235-.46l-.13-.8a2.5,2.5,0,0,0-1.294-1.8l-.705-.416-.042-.023a.84.84,0,0,1-.365-.365L23,3.537A2.582,2.582,0,0,0,21.134,2.22l-.8-.13a.841.841,0,0,1-.46-.234l-.578-.573A2.5,2.5,0,0,0,17.162.589l-.8.124a.841.841,0,0,1-.51-.081L15.12.266a2.5,2.5,0,0,0-2.241,0l-.727.367a.842.842,0,0,1-.51.081l-.8-.124a2.5,2.5,0,0,0-2.131.693l-.578.573a.841.841,0,0,1-.46.235l-.8.13A2.581,2.581,0,0,0,5,3.537l-.372.724a.841.841,0,0,1-.365.365L3.537,5A2.581,2.581,0,0,0,2.22,6.866l-.13.8a.84.84,0,0,1-.235.46l-.573.578a2.5,2.5,0,0,0-.693,2.131l.124.8a.84.84,0,0,1-.081.51l-.367.727a2.5,2.5,0,0,0,0,2.241l.367.727a.841.841,0,0,1,.081.51l-.124.8a2.5,2.5,0,0,0,.693,2.131l.573.578a.84.84,0,0,1,.235.46l.13.8A2.581,2.581,0,0,0,3.537,23l.724.372a.841.841,0,0,1,.365.365L5,24.463A2.582,2.582,0,0,0,6.866,25.78l.8.13a.841.841,0,0,1,.46.234l.578.573a2.5,2.5,0,0,0,2.131.692l.8-.124a.84.84,0,0,1,.51.081l.727.367a2.5,2.5,0,0,0,2.241,0l.727-.367a.841.841,0,0,1,.51-.081l.8.124a2.5,2.5,0,0,0,2.131-.693l.578-.573a.841.841,0,0,1,.46-.235l.8-.13a2.5,2.5,0,0,0,1.8-1.294l.416-.705.023-.042a.841.841,0,0,1,.365-.365L24.463,23a2.5,2.5,0,0,0,1.317-1.813l.13-.8a.841.841,0,0,1,.235-.46l.588-.647a2.5,2.5,0,0,0,.678-2.117l-.124-.8a.841.841,0,0,1,.081-.51Z" fill="url(#linear-gradient)"/>
        </g>
      </g>
      <path id="Path_5052" data-name="Path 5052" d="M14,4.1A9.9,9.9,0,1,0,23.9,14,9.942,9.942,0,0,0,14,4.1Zm5.718,7.637L18.077,18.3a.82.82,0,0,1-.8.621H10.718a.82.82,0,0,1-.8-.621L8.282,11.738a.82.82,0,0,1,1.477-.656c.225.33,1.037,1.278,1.78,1.278.136,0,.557-.316.99-1.294a7.7,7.7,0,0,0,.65-2.808.82.82,0,0,1,1.641,0,7.7,7.7,0,0,0,.65,2.808c.434.978.855,1.294.99,1.294.766,0,1.6-1.008,1.78-1.278a.82.82,0,0,1,1.477.656Z" fill="url(#linear-gradient-2)"/>
    </g>
  </g>
</svg>
